<?xml version="1.0" encoding="UTF-8"?>
<svg xmlns="http://www.w3.org/2000/svg" width="380" height="480" viewBox="0 0 380 480">
  <defs><marker id="arrow" markerWidth="10" markerHeight="10" refX="5" refY="5" orient="auto-start-reverse"><path d="M0,0 L10,5 L0,10 z" fill="#312e81"/></marker></defs>
  <style>text { font-family: 'Helvetica', 'Arial', sans-serif; font-size: 14px; }</style>
  <rect x="40" y="40" rx="10" ry="10" width="300" height="70" fill="#eef2ff" stroke="#312e81" stroke-width="2" />
  <text x="56" y="64" fill="#1e1b4b">1. shell</text>
  <text x="56" y="86" fill="#4338ca">mkdir -p /root/repo/proofs && echo $(date -u) >…</text>
  <line x1="190.0" y1="110" x2="190.0" y2="150" stroke="#312e81" stroke-width="2" marker-end="url(#arrow)" />
  <rect x="40" y="150" rx="10" ry="10" width="300" height="70" fill="#eef2ff" stroke="#312e81" stroke-width="2" />
  <text x="56" y="174" fill="#1e1b4b">2. assert.shell_success</text>
  <text x="56" y="196" fill="#4338ca">test -s /root/repo/proofs/HELLO_ENGINE.txt</text>
  <line x1="190.0" y1="220" x2="190.0" y2="260" stroke="#312e81" stroke-width="2" marker-end="url(#arrow)" />
  <rect x="40" y="260" rx="10" ry="10" width="300" height="70" fill="#eef2ff" stroke="#312e81" stroke-width="2" />
  <text x="56" y="284" fill="#1e1b4b">3. shell</text>
  <text x="56" y="306" fill="#4338ca">python3 - <<'PY'\nfrom datetime import datetime…</text>
  <line x1="190.0" y1="330" x2="190.0" y2="370" stroke="#312e81" stroke-width="2" marker-end="url(#arrow)" />
  <rect x="40" y="370" rx="10" ry="10" width="300" height="70" fill="#eef2ff" stroke="#312e81" stroke-width="2" />
  <text x="56" y="394" fill="#1e1b4b">4. http.get</text>
  <text x="56" y="416" fill="#4338ca">https://example-disallowed-host.invalid/</text>
</svg>