<?xml version="1.0" encoding="UTF-8" standalone="no"?>
<!DOCTYPE svg PUBLIC "-//W3C//DTD SVG 1.1//EN"
 "http://www.w3.org/Graphics/SVG/1.1/DTD/svg11.dtd">
<!-- Generated by graphviz version 2.43.0 (0)
 -->
<!-- Title: UTIR Pages: 1 -->
<svg width="1900pt" height="46pt"
 viewBox="0.00 0.00 1900.00 46.00" xmlns="http://www.w3.org/2000/svg" xmlns:xlink="http://www.w3.org/1999/xlink">
<g id="graph0" class="graph" transform="scale(1 1) rotate(0) translate(4 42)">
<title>UTIR</title>
<polygon fill="white" stroke="transparent" points="-4,4 -4,-42 1896,-42 1896,4 -4,4"/>
<!-- n0 -->
<g id="node1" class="node">
<title>n0</title>
<polygon fill="none" stroke="black" points="673,-38 0,-38 0,0 673,0 673,-38"/>
<text text-anchor="middle" x="336.5" y="-22.8" font-family="Helvetica,sans-Serif" font-size="14.00">0: shell</text>
<text text-anchor="middle" x="336.5" y="-7.8" font-family="Helvetica,sans-Serif" font-size="14.00">mkdir &#45;p {{WORKSPACE}}/proofs &amp;&amp; echo $(date &#45;u) &gt; {{WORKSPACE}}/proofs/HELLO_EN...</text>
</g>
<!-- n1 -->
<g id="node2" class="node">
<title>n1</title>
<polygon fill="none" stroke="black" points="1080,-38 709,-38 709,0 1080,0 1080,-38"/>
<text text-anchor="middle" x="894.5" y="-22.8" font-family="Helvetica,sans-Serif" font-size="14.00">1: assert.shell_success</text>
<text text-anchor="middle" x="894.5" y="-7.8" font-family="Helvetica,sans-Serif" font-size="14.00">test &#45;s {{WORKSPACE}}/proofs/HELLO_ENGINE.txt</text>
</g>
<!-- n0&#45;&gt;n1 -->
<g id="edge1" class="edge">
<title>n0&#45;&gt;n1</title>
<path fill="none" stroke="black" d="M673.35,-19C681.9,-19 690.37,-19 698.74,-19"/>
<polygon fill="black" stroke="black" points="698.88,-22.5 708.88,-19 698.88,-15.5 698.88,-22.5"/>
</g>
<!-- n2 -->
<g id="node3" class="node">
<title>n2</title>
<polygon fill="none" stroke="black" points="1563,-38 1116,-38 1116,0 1563,0 1563,-38"/>
<text text-anchor="middle" x="1339.5" y="-22.8" font-family="Helvetica,sans-Serif" font-size="14.00">2: summarize.run</text>
<text text-anchor="middle" x="1339.5" y="-7.8" font-family="Helvetica,sans-Serif" font-size="14.00">Created proof artefact and ensured it exists in the workspace.</text>
</g>
<!-- n1&#45;&gt;n2 -->
<g id="edge2" class="edge">
<title>n1&#45;&gt;n2</title>
<path fill="none" stroke="black" d="M1080.16,-19C1088.61,-19 1097.13,-19 1105.67,-19"/>
<polygon fill="black" stroke="black" points="1105.71,-22.5 1115.71,-19 1105.71,-15.5 1105.71,-22.5"/>
</g>
<!-- n3 -->
<g id="node4" class="node">
<title>n3</title>
<polygon fill="none" stroke="black" points="1892,-38 1599,-38 1599,0 1892,0 1892,-38"/>
<text text-anchor="middle" x="1745.5" y="-22.8" font-family="Helvetica,sans-Serif" font-size="14.00">3: http.get</text>
<text text-anchor="middle" x="1745.5" y="-7.8" font-family="Helvetica,sans-Serif" font-size="14.00">https://example&#45;disallowed&#45;host.invalid/</text>
</g>
<!-- n2&#45;&gt;n3 -->
<g id="edge3" class="edge">
<title>n2&#45;&gt;n3</title>
<path fill="none" stroke="black" d="M1563.18,-19C1571.76,-19 1580.3,-19 1588.72,-19"/>
<polygon fill="black" stroke="black" points="1588.93,-22.5 1598.93,-19 1588.93,-15.5 1588.93,-22.5"/>
</g>
</g>
</svg>
